
<svg width="41px" height="42px" viewBox="0 0 41 42" version="1.1" xmlns="http://www.w3.org/2000/svg" xmlns:xlink="http://www.w3.org/1999/xlink">
    <g id="Page-1" stroke="none" stroke-width="1" fill="none" fill-rule="evenodd">
        <g id="How-It-Works-In-Store-Popup" transform="translate(-395.000000, -291.000000)" fill="#533187" fill-rule="nonzero">
            <g id="Group" transform="translate(54.000000, 27.000000)">
                <g id="Group-12" transform="translate(341.000000, 264.000000)">
                    <g id="Group-8">
                        <g id="Group-7">
                            <g id="Asset-13-Copy" transform="translate(0.009008, 0.098040)">
                                <path d="M37.4585992,41.7579451 L3.28381201,41.7579451 C1.5335607,41.7557493 0.115249797,40.3391282 0.113051446,38.5909622 L0.113051446,6.98622616 C0.115982177,5.23784524 1.53467452,3.82143725 3.28514203,3.81924324 L37.4572692,3.81924324 C39.2077367,3.82143725 40.6264291,5.23784524 40.6293598,6.98622616 L40.6293598,38.5909622 C40.6278931,40.3394314 39.209154,41.7564801 37.4585992,41.7579451 Z M3.28514203,6.34857859 C2.93264512,6.34930602 2.64686574,6.63415149 2.64540384,6.98622616 L2.64540384,38.5909622 C2.64540384,38.9431252 2.93122892,39.2286097 3.28381201,39.2286097 L37.4652493,39.2286097 C37.8178324,39.2286097 38.1036575,38.9431252 38.1036575,38.5909622 L38.1036575,6.98622616 C38.1021956,6.63415149 37.8164162,6.34930602 37.4639193,6.34857859 L3.28514203,6.34857859 Z M39.3685037,13.9365846 L1.37922765,13.9365846 C0.713186527,13.893395 0.195082342,13.341222 0.195082342,12.6745738 C0.195082342,12.0079257 0.713186527,11.4557527 1.37922765,11.412563 L39.3685037,11.412563 C39.8394824,11.3820222 40.2883765,11.6156582 40.5331389,12.0187208 C40.7779014,12.4217835 40.7779014,12.9273642 40.5331389,13.3304268 C40.2883765,13.7334895 39.8394824,13.9671254 39.3685037,13.9365846 Z M7.71409869,8.87791395 C7.01480889,8.87791395 6.44792249,8.31170294 6.44792249,7.61324627 L6.44792249,1.51175611 C6.49116369,0.846508512 7.04399535,0.329021596 7.71143866,0.329021596 C8.37888197,0.329021596 8.93171363,0.846508512 8.97495482,1.51175611 L8.97495482,7.61324627 C8.97423313,8.3093326 8.41100612,8.87426224 7.71409869,8.87791395 Z M33.0362927,8.87791395 C32.3370029,8.87791395 31.7701165,8.31170294 31.7701165,7.61324627 L31.7701165,1.51175611 C31.7395392,1.04133847 31.9734539,0.592979197 32.3769973,0.348508381 C32.7805408,0.104037565 33.2867245,0.104037565 33.6902679,0.348508381 C34.0938114,0.592979197 34.327726,1.04133847 34.2971488,1.51175611 L34.2971488,7.61324627 C34.2971492,8.31118448 33.731073,8.87718082 33.0323026,8.87791395 L33.0362927,8.87791395 Z" id="Shape"></path>
                                <polygon id="Shape" points="11.2732242 24.1774703 9.4497709 24.1774703 9.4497709 22.1330128 13.7709962 22.1330128 13.7709962 31.6392752 11.2732242 31.6392752"></polygon>
                                <polygon id="Shape" points="19.8066134 18.490451 22.2112842 18.490451 17.1266291 33.9706742 14.7192983 33.9706742"></polygon>
                                <path d="M21.648687,28.0153116 C21.648687,26.649683 22.2139442,25.5563831 23.1808666,24.2266223 L25.8409006,20.5481929 L28.611326,20.5481929 L26.3689174,23.6261708 C26.0439373,24.0338013 25.6705695,24.4004791 25.2570231,24.7181423 C25.6720455,24.5202458 26.1271953,24.4206868 26.5870401,24.4272156 C28.5381751,24.4272156 30.0690247,25.7755745 30.0690247,27.9608458 C30.0690247,30.3520242 28.1910407,31.8040009 25.875481,31.8040009 C23.5599214,31.8040009 21.648687,30.2736467 21.648687,28.0153116 Z M27.5566226,27.9608458 C27.5641722,27.2741452 27.1558318,26.650857 26.5228006,26.3828265 C25.8897694,26.1147961 25.1573549,26.2550795 24.6684992,26.7379914 C24.1796435,27.2209032 24.0311149,27.9508517 24.2924596,28.5860494 C24.5538044,29.2212472 25.1732897,29.6359577 25.8608509,29.6359991 C26.3124706,29.6534488 26.75114,29.483202 27.0724815,29.1657676 C27.3938231,28.8483331 27.5691058,28.4120927 27.5566226,27.9608458 Z" id="Shape"></path>
                            </g>
                        </g>
                    </g>
                </g>
            </g>
        </g>
    </g>
</svg>