
<svg width="48px" height="47px" viewBox="0 0 48 47" version="1.1" xmlns="http://www.w3.org/2000/svg" xmlns:xlink="http://www.w3.org/1999/xlink">
    <g id="Page-1" stroke="none" stroke-width="1" fill="none" fill-rule="evenodd">
        <g id="How-It-Works-In-Store-Popup" transform="translate(-565.000000, -290.000000)" fill="#533187">
            <g id="Group" transform="translate(54.000000, 27.000000)">
                <g id="Group-13" transform="translate(511.000000, 263.000000)">
                    <g id="Group-9">
                        <g id="Group-2-Copy" transform="translate(0.943065, 0.098244)">
                            <path d="M38.3877147,38.1707815 C34.3789579,42.1571012 29.0494945,44.352495 23.3812079,44.352495 C17.7132343,44.3526506 12.383771,42.1571012 8.37501417,38.1707815 C4.36610089,34.1844617 2.15850678,28.8849831 2.15850678,23.2485776 C2.15850678,17.6121721 4.36625739,12.3126935 8.37501417,8.32637374 C12.3839275,4.34005403 17.7132343,2.14466024 23.3813644,2.14450461 C29.049651,2.14450461 34.3789579,4.33989841 38.3877147,8.32637374 C42.3966279,12.3126935 44.6043786,17.6121721 44.6043786,23.2485776 C44.6043786,28.8848275 42.3966279,34.1843061 38.3877147,38.1707815 M39.9115587,6.81090307 C35.494649,2.41887048 29.6240074,0 23.3813644,0 C17.1387215,0 11.2680799,2.4190261 6.85132664,6.81105869 C2.43426041,11.2032469 0.00177528285,17.0408748 0.00177528285,23.2485776 C0.00177528285,29.4562804 2.43426041,35.2939083 6.85117014,39.6860965 C11.2680799,44.0779735 17.1390345,46.4971552 23.3810514,46.4971552 L23.3812079,46.4971552 C29.6240074,46.4971552 35.4944925,44.0782847 39.9115587,39.6859409 C44.3284684,35.2940639 46.76111,29.456436 46.76111,23.2485776 C46.76111,17.0408748 44.3284684,11.2032469 39.9115587,6.81090307" id="Fill-1"></path>
                            <path d="M35.696644,29.6983697 C35.4216728,29.5513047 35.1074201,29.5178454 34.8110084,29.6046838 C34.5131882,29.6921448 34.2676392,29.8908772 34.1195898,30.1644649 C33.2079752,31.8298019 31.7224738,33.2466067 29.8247504,34.2603442 C27.915446,35.2759492 25.6871938,35.8126979 23.381474,35.8126979 C21.0755976,35.8126979 18.847502,35.2759492 16.937728,34.260033 C15.0486122,33.2512754 13.5634237,31.8346263 12.6427321,30.1635312 C12.3392779,29.604217 11.6323658,29.3950577 11.0659909,29.6983697 C10.5029026,29.9998143 10.2924097,30.7035479 10.5972724,31.2667527 C11.7308045,33.331422 13.5435482,35.0733262 15.840504,36.3058717 C18.0981782,37.5093154 20.7054743,38.1451968 23.381474,38.1451968 C26.0671767,38.1451968 28.6746292,37.5091598 30.9219744,36.3058717 C33.2053147,35.0979149 35.0186844,33.3556994 36.1647366,31.2681533 C36.4702253,30.7035479 36.2600453,29.9998143 35.696644,29.6983697" id="Fill-3"></path>
                            <path d="M14.1367472,17.591583 L10.7395938,22.1158963 C10.3358229,22.6535787 9.48555639,22.4876831 9.318101,21.8376399 C8.98287723,20.5372421 8.46439153,18.7525412 7.88549669,17.5786661 C7.64573813,17.0929623 7.96014736,16.5180857 8.49850861,16.4388728 C9.43391127,16.3013008 11.0172254,16.1866056 13.5321863,16.3154627 C14.1741507,16.348455 14.5214251,17.0792674 14.1367472,17.591583 M32.7878343,17.1159947 L29.0077246,22.1158963 C28.6039537,22.6537343 27.9737267,22.3869941 27.5862318,21.8376399 C26.6365876,20.4908661 26.0722473,19.7564744 26.1536275,17.5786661 C26.173816,17.0380269 26.2284347,16.5180857 26.7664829,16.4388728 C27.7021986,16.3014565 29.6681561,15.7110174 32.1829604,15.8398744 C32.8250814,15.8728668 33.1725122,16.6036791 32.7878343,17.1159947 M42.2628358,15.6022359 L42.2598623,15.5273806 C42.2201112,14.4733363 42.0265202,14.2528165 40.9648218,14.0529947 C40.8379,14.0290286 40.7105087,14.008953 40.5828044,13.9885662 C40.4907822,13.9739375 40.39876,13.9591532 40.3070508,13.9431239 C36.3957937,13.2512177 32.3958009,13.2860776 28.4181877,14.0455248 C27.8823305,14.14777 27.3578978,14.2900107 26.8508366,14.4275827 C26.2561352,14.5888096 25.6944554,14.7413216 25.1205686,14.8329844 C23.6133136,15.0740466 22.1799268,14.9886088 20.7376194,14.5712241 C18.3644479,13.8844535 15.8258556,13.5103324 12.9767665,13.4273845 L12.7694035,13.4266064 C12.6279272,13.4258283 12.4861378,13.4253614 12.344505,13.4275402 C10.2884032,13.4613107 8.39255786,13.6326532 6.54867059,13.9510607 L6.51721402,13.9565076 C4.71745985,14.2672896 4.50571486,14.5363642 4.62622014,16.3563919 C4.63936617,16.5549687 4.66424973,16.9245767 5.02623507,17.2023663 C5.79997286,17.7968516 6.09591504,18.6842221 6.30061752,19.5544739 C6.35148013,19.7712587 6.40030825,19.988666 6.44944936,20.2063846 C6.75838108,21.5821045 7.07795482,23.0046674 7.9340118,24.277364 C8.52699167,25.1586651 9.26489088,26.2556617 10.5647829,26.8310052 C11.6604419,27.3157753 12.8133801,27.5566819 14.054741,27.5566819 C14.6536679,27.5566819 15.2734093,27.5006571 15.9169388,27.3887632 C17.3969627,27.131516 19.5176991,26.5560169 20.8410662,24.5367899 C22.2134179,22.4431745 22.9644631,20.4292388 23.137083,18.3798207 C23.14303,18.3080778 23.1544545,18.1717508 23.1690091,18.0695056 C23.2716733,18.0648369 23.4098631,18.0657706 23.4981293,18.0663931 L23.5879605,18.0662375 C23.6471177,18.0660819 23.7043968,18.0654594 23.7494689,18.0688831 C23.8357006,19.9205025 24.4302455,21.7551589 25.6177702,23.8358575 C26.0508067,24.5942153 26.7677349,25.6804738 27.9915677,26.3546389 C29.8475055,27.3769357 31.9405414,27.7449875 34.2130831,27.4480561 C35.1340878,27.327914 36.4767044,27.0571275 37.4992778,26.0995704 C38.7677132,24.9118448 39.6463062,23.4236084 40.1109558,21.6761017 C40.2416336,21.1844841 40.3596349,20.6849297 40.4732541,20.2017159 C40.5860909,19.7236376 40.7025272,19.2292188 40.8299185,18.7506737 C40.9790633,18.191982 41.1687417,17.8419827 41.4272803,17.6493196 C42.2088432,17.0665062 42.2906928,16.3210651 42.2628358,15.6022359" id="Fill-5"></path>
                        </g>
                    </g>
                </g>
            </g>
        </g>
    </g>
</svg>